<?xml version="1.0" encoding="UTF-8" standalone="no"?>
<!DOCTYPE svg PUBLIC "-//W3C//DTD SVG 1.1//EN" "http://www.w3.org/Graphics/SVG/1.1/DTD/svg11.dtd">
<svg width="100%" height="100%" viewBox="0 0 24 24" version="1.1" xmlns="http://www.w3.org/2000/svg" xmlns:xlink="http://www.w3.org/1999/xlink" xml:space="preserve" xmlns:serif="http://www.serif.com/" style="fill-rule:evenodd;clip-rule:evenodd;stroke-linejoin:round;stroke-miterlimit:2;">
    <path d="M13,20L6,20C3.826,16.996 2,13.716 2,8L17,8C17,13.667 15.12,17.1 13,20ZM18.12,10C18.067,10.67 17.983,11.338 17.868,12L19.418,12C18.968,13.3 17.918,14.478 17.118,14.914C16.778,15.898 16.356,16.852 15.858,17.766C19.132,16.623 21.704,13.257 22,10L18.12,10ZM10.375,7C15.112,2.73 9.395,2.956 10.492,0C6.709,3.817 11.892,3.902 10.375,7ZM7.595,7C10.749,4.175 6.931,3.898 7.682,1.9C5.04,4.687 8.632,4.76 7.595,7ZM17,22L2,22L2,24L17,24L17,22Z" style="fill:white;fill-rule:nonzero;"/>
</svg>
