<svg xmlns="http://www.w3.org/2000/svg" fill-rule="evenodd" stroke-linejoin="round" stroke-miterlimit="2" viewBox="0 0 24 24" xmlns:v="https://vecta.io/nano"><path d="M12 2c5.514 0 10 4.486 10 10s-4.486 10-10 10S2 17.514 2 12 6.486 2 12 2zm0-2C5.373 0 0 5.373 0 12s5.373 12 12 12 12-5.373 12-12S18.627 0 12 0zm0 6a6 6 0 0 0-1.896 11.693c.3.056.396-.13.396-.3v-1.117c-1.67.363-2.017-.707-2.017-.707-.272-.693-.666-.878-.666-.878-.544-.373.04-.365.04-.365.603.042.92.62.92.62.535.917 1.403.652 1.746.5.054-.388.2-.652.38-.802-1.333-.152-2.733-.667-2.733-2.965a2.32 2.32 0 0 1 .618-1.61c-.062-.153-.268-.764.058-1.6 0 0 .504-.16 1.65.615.48-.133.992-.2 1.502-.202.5.002 1.023.07 1.503.202 1.146-.776 1.648-.615 1.648-.615.327.826.12 1.437.06 1.588.385.42.617.955.617 1.6 0 2.305-1.404 2.812-2.74 2.96.216.186.412.55.412 1.1v1.646c0 .16.096.347.4.288a6 6 0 0 0-1.9-11.7z" fill="#fff" fill-rule="nonzero"/></svg>